<svg width="15" height="15" viewBox="0 0 15 15" fill="none" xmlns="http://www.w3.org/2000/svg">
<rect x="0.854797" y="0.228882" width="14.0699" height="14.0699" rx="4.05862" fill="#EBD96B"/>
<path d="M11.2532 5.92728C11.2575 5.98737 11.2575 6.04747 11.2575 6.10756C11.2575 7.94028 9.86255 10.052 7.31303 10.052C6.52757 10.052 5.79792 9.82451 5.18414 9.42966C5.29574 9.44253 5.40303 9.44682 5.51893 9.44682C6.16703 9.44682 6.76364 9.22793 7.24006 8.85451C6.63058 8.84163 6.11982 8.44247 5.94384 7.89307C6.02969 7.90594 6.11553 7.91453 6.20567 7.91453C6.33014 7.91453 6.45462 7.89735 6.5705 7.86732C5.93527 7.73855 5.45883 7.18058 5.45883 6.50672V6.48956C5.64338 6.59257 5.858 6.65695 6.08547 6.66552C5.71205 6.41658 5.46741 5.99166 5.46741 5.51094C5.46741 5.25342 5.53608 5.01736 5.65626 4.81133C6.33871 5.65259 7.36453 6.20197 8.5148 6.26207C8.49335 6.15906 8.48047 6.05176 8.48047 5.94446C8.48047 5.18045 9.09854 4.55811 9.86682 4.55811C10.266 4.55811 10.6265 4.7255 10.8798 4.9959C11.1931 4.93581 11.4935 4.81992 11.7596 4.66112C11.6566 4.98303 11.4377 5.25344 11.1502 5.42511C11.4292 5.39508 11.6996 5.3178 11.9485 5.21051C11.7597 5.48519 11.5236 5.72984 11.2532 5.92728Z" fill="black"/>
</svg>
