<svg width="15" height="15" viewBox="0 0 15 15" fill="none" xmlns="http://www.w3.org/2000/svg">
<rect x="0.712769" y="0.228882" width="14.0699" height="14.0699" rx="4.05862" fill="#EBD96B"/>
<path d="M6.36129 6.42155V9.85236H5.44493V6.42155H6.36129ZM5.38785 5.52738C5.38785 5.39421 5.43436 5.28429 5.52737 5.19762C5.62038 5.11095 5.7451 5.06762 5.90152 5.06762C6.05584 5.06762 6.1795 5.11095 6.27251 5.19762C6.36763 5.28429 6.41519 5.39421 6.41519 5.52738C6.41519 5.66056 6.36763 5.77048 6.27251 5.85715C6.1795 5.94382 6.05584 5.98715 5.90152 5.98715C5.7451 5.98715 5.62038 5.94382 5.52737 5.85715C5.43436 5.77048 5.38785 5.66056 5.38785 5.52738ZM8.13998 7.154V9.85236H7.22679V6.42155H8.08291L8.13998 7.154ZM8.00681 8.01646H7.75949C7.75949 7.7628 7.79225 7.5345 7.85778 7.33157C7.92331 7.12652 8.01526 6.95213 8.13364 6.80839C8.25202 6.66253 8.39259 6.55155 8.55536 6.47545C8.72024 6.39724 8.90414 6.35813 9.10708 6.35813C9.26773 6.35813 9.41464 6.38139 9.54782 6.42789C9.68099 6.4744 9.79514 6.54838 9.89026 6.64985C9.9875 6.75131 10.0615 6.88554 10.1122 7.05254C10.1651 7.21953 10.1915 7.42352 10.1915 7.6645V9.85236H9.27196V7.66133C9.27196 7.50913 9.25082 7.39076 9.20854 7.3062C9.16626 7.22165 9.10391 7.16246 9.02146 7.12864C8.94114 7.0927 8.84179 7.07473 8.72341 7.07473C8.6008 7.07473 8.49405 7.09904 8.40316 7.14766C8.31438 7.19628 8.24039 7.26393 8.1812 7.35059C8.12413 7.43515 8.08079 7.5345 8.0512 7.64865C8.02161 7.7628 8.00681 7.8854 8.00681 8.01646Z" fill="black"/>
</svg>
