<svg width="15" height="15" viewBox="0 0 15 15" fill="none" xmlns="http://www.w3.org/2000/svg">
<rect x="-0.00299072" y="0.228882" width="14.0699" height="14.0699" rx="4.05862" fill="#EBD96B"/>
<path d="M7.01763 5.72992C6.17737 5.72992 5.49961 6.40768 5.49961 7.24794C5.49961 8.0882 6.17737 8.76596 7.01763 8.76596C7.8579 8.76596 8.53566 8.0882 8.53566 7.24794C8.53566 6.40768 7.8579 5.72992 7.01763 5.72992ZM7.01763 8.23485C6.47463 8.23485 6.03072 7.79226 6.03072 7.24794C6.03072 6.70362 6.47331 6.26103 7.01763 6.26103C7.56195 6.26103 8.00455 6.70362 8.00455 7.24794C8.00455 7.79226 7.56063 8.23485 7.01763 8.23485ZM8.95182 5.66783C8.95182 5.86468 8.79328 6.0219 8.59775 6.0219C8.4009 6.0219 8.24368 5.86336 8.24368 5.66783C8.24368 5.47229 8.40222 5.31375 8.59775 5.31375C8.79328 5.31375 8.95182 5.47229 8.95182 5.66783ZM9.95723 6.02718C9.93477 5.55288 9.82643 5.13275 9.47897 4.78661C9.13282 4.44046 8.71269 4.33213 8.23839 4.30834C7.74956 4.2806 6.28439 4.2806 5.79555 4.30834C5.32258 4.3308 4.90245 4.43914 4.55498 4.78529C4.20751 5.13143 4.1005 5.55156 4.07672 6.02586C4.04897 6.51469 4.04897 7.97987 4.07672 8.4687C4.09918 8.943 4.20751 9.36313 4.55498 9.70928C4.90245 10.0554 5.32126 10.1638 5.79555 10.1875C6.28439 10.2153 7.74956 10.2153 8.23839 10.1875C8.71269 10.1651 9.13282 10.0567 9.47897 9.70928C9.82511 9.36313 9.93345 8.943 9.95723 8.4687C9.98497 7.97987 9.98497 6.51601 9.95723 6.02718ZM9.32571 8.9932C9.22266 9.25215 9.02317 9.45165 8.7629 9.55602C8.37315 9.7106 7.44833 9.67492 7.01763 9.67492C6.58693 9.67492 5.6608 9.70927 5.27237 9.55602C5.01342 9.45297 4.81393 9.25347 4.70956 8.9932C4.55498 8.60346 4.59065 7.67864 4.59065 7.24794C4.59065 6.81724 4.5563 5.8911 4.70956 5.50268C4.81261 5.24373 5.0121 5.04423 5.27237 4.93986C5.66212 4.78529 6.58693 4.82096 7.01763 4.82096C7.44833 4.82096 8.37447 4.78661 8.7629 4.93986C9.02184 5.04291 9.22134 5.24241 9.32571 5.50268C9.48029 5.89242 9.44462 6.81724 9.44462 7.24794C9.44462 7.67864 9.48029 8.60478 9.32571 8.9932Z" fill="black"/>
</svg>
